<?xml version="1.0" encoding="utf-8"?>
<!-- Generator: Adobe Illustrator 24.0.2, SVG Export Plug-In . SVG Version: 6.00 Build 0)  -->
<svg version="1.1" id="Layer_1" xmlns="http://www.w3.org/2000/svg" xmlns:xlink="http://www.w3.org/1999/xlink" x="0px" y="0px"
	 viewBox="0 0 835.2 552.5" style="enable-background:new 0 0 835.2 552.5;" xml:space="preserve">
<style type="text/css">
	.st0{fill-rule:evenodd;clip-rule:evenodd;fill:#FFFFFF;}
	.st1{fill-rule:evenodd;clip-rule:evenodd;fill:#B3220D;}
	.st2{fill:#FFFFFF;}
	.st3{font-family:'Arial-BoldMT';}
	.st4{font-size:105.3975px;}
	.st5{font-family:'ArialMT';}
	.st6{font-size:68px;}
	.st7{letter-spacing:1;}
</style>
<g>
	<path class="st0" d="M393.1,164.6l82.6,0l0.2-23.2c-9.4-0.9-42.7,0-57.2,0l0.1-33.9l44,0l0.8-22.2l-43.6,0l0.3-31.8l55.6,0.2
		l-0.3-22.7l-83.1,0.4L393.1,164.6z"/>
	<path class="st0" d="M284.6,130.7c-1.9,4.4-4.2,21.1-4,26.8c6,2.1,7.4,3.4,15.3,5.3c15.4,3.6,37.7,5.3,51.4-3.5
		c8.7-5.6,15.1-10.6,19.3-21.6c4.5-11.6,0.7-26.4-5.3-33.7c-6.3-7.7-13.9-11.1-24.4-16.5c-7.9-4.1-20.6-8.8-24.5-16.3
		c-5.4-10.5,7.2-28.1,33.5-15c13.7,6.9,13.2,10.7,17.2-6.5c1-4.2,1.9-9.5,1.2-13.9c-11.4-4-21-6.3-34.8-6
		c-12.3,0.3-21.3,2.8-30.7,10.1c-8.1,6.3-13.8,14.5-15.1,26c-5.4,44.8,59.5,38.8,56.6,66.1c-1.3,11.8-15.9,14.3-27.3,11.5
		C296.3,139.2,292.2,130.6,284.6,130.7z"/>
	<path class="st0" d="M486.5,30.9l94.5,0.2c-0.7,6.4-1.5,11.7-2.2,18.1c0,1.4-1.4,3.1-3.1,3.2l-29.4-0.2l0.1,110.8h-27.4V52.5h-31.4
		c0,0-3.9,0-3.4-3.5L486.5,30.9z"/>
</g>
<rect x="26.3" y="244" class="st1" width="808.9" height="18.3"/>
<text transform="matrix(1 0 0 1 69.6111 419.0131)" class="st2 st3 st4">DEĞER KAYBI</text>
<text transform="matrix(1 0 0 1 133.8583 519.2426)" class="st2 st5 st6 st7">setdegerkaybi.com</text>
</svg>
